<svg xmlns="http://www.w3.org/2000/svg" width="452.869" height="95.548" viewBox="0 0 452.869 95.548">
  <path id="logo" d="M0,47.774A47.774,47.774,0,1,1,87.946,73.641l17.682,6.57v5.078H87.723L80.475,82.6A47.775,47.775,0,0,1,0,47.774Zm1.085,0a46.69,46.69,0,0,0,78.889,33.81l.244-.234,7.7,2.854h16.627V80.965L86.289,74.183l.38-.572A46.691,46.691,0,1,0,1.085,47.774ZM41.774,92.55l.076-1.311,4.332-4.593-3.73-.225.082-1.392,5.934.352-.076,1.311-4.332,4.6,4.154.246-.088,1.392Zm7.49-3.343a3.719,3.719,0,1,1,4.181,3.429,4.4,4.4,0,0,1-.557.036A3.655,3.655,0,0,1,49.263,89.207Zm3.358-3.031c-1.475.184-1.873,1.516-1.709,2.827.158,1.25.873,2.44,2.352,2.251s1.879-1.516,1.721-2.761c-.153-1.223-.783-2.336-2.061-2.336A2.366,2.366,0,0,0,52.621,86.176Zm-14.069,5.73,1.377-7.424,1.635.3-1.379,7.425Zm-3.379-.8a8.394,8.394,0,0,1,.317-1.8c.139-.786-.045-1.215-.842-1.475l-1.576-.52-.918,2.8L30.572,89.6l2.363-7.175L36.8,83.691a2.081,2.081,0,0,1,1.449,2.674,1.862,1.862,0,0,1-1.731,1.424l0,.021a1.717,1.717,0,0,1,.494,2.021,4.057,4.057,0,0,0-.259,1.8Zm-1.729-4.924,1.725.571a.977.977,0,0,0,1.424-.669c.229-.694-.057-1.122-.756-1.352l-1.731-.567ZM56.795,84.3l1.557-.525,4.613,3.785.02-.01-1.627-4.8,1.474-.5,2.425,7.149-1.572.531-4.6-3.776-.02.005,1.624,4.786-1.475.5Zm257.324-7V90.1h-2.137v-18l12.893,13.507V72.924h2.146V90.81Zm-26.568,4.216a9,9,0,0,1,18,0,9,9,0,0,1-18,0Zm2.143,0a6.858,6.858,0,1,0,13.714,0,6.858,6.858,0,1,0-13.714,0Zm57.22,8.59-1.955-4.3h-7.883l-1.963,4.3h-2.3l8.2-17.912L349.219,90.1Zm-8.953-6.265h6.112l-3.059-6.95ZM270.184,90.1l8.707-15.223h-7.478V72.924h10.961l-8.707,15.217h8.707V90.1Zm-8.476,0V72.924h2.14V90.1Zm-8.779,0-5.057-7.268h-.89V90.1H244.84V72.924h2.6a9.114,9.114,0,0,1,4.537.794,4.764,4.764,0,0,1,2.254,4.1,4.676,4.676,0,0,1-4.123,4.809l5.423,7.474Zm-5.947-9.046h.688c2.185,0,4.552-.41,4.552-3.145,0-2.689-2.551-3.074-4.666-3.074h-.574ZM236.543,90.1l-1.963-4.3H226.7l-1.961,4.3h-2.3l8.207-17.912,8.2,17.912Zm-8.96-6.265h6.111l-3.052-6.95ZM27.566,88.171l.31-1.751L25.4,85.059l-1.327,1.189L22.6,85.436l6.154-5.23,1.49.821L29.076,89Zm-1.184-3.985,1.709.944.506-2.888-.015-.01Zm39.143-3.378,1.486-.837,6.174,5.184-1.5.848-1.327-1.184L67.9,86.212l.311,1.755-1.464.827Zm1.639,1.214.506,2.9,1.7-.965L67.18,82.013ZM11.831,47.963A35.9,35.9,0,1,1,76.725,69.121l-.257-.061c-1.945-.184-5.261-2.595-5.752-3.341,0-1.205,1.3-2.411.19-3.524L68.031,60.8c-8.812-1.854-18.274-2.5-27.359-3.708v-.465c2.777-1.67,6.027-2.13,8.9-3.616.184-1.021-1.022-.741-1.578-1.114-3.525-.93-7.79.189-10.849-1.762.367-.833,1.482-1.021,2.222-1.573A18.665,18.665,0,0,0,31.3,51.9a6.117,6.117,0,0,0,3.794.685c1.473-.036,2.934-.076,4,.894-3.06,3.99-9.369,2.411-12.429,6.952.464,1.486,2.13,2.227,3.525,2.6,7.605,1.762,15.764,2.13,23.65,3.152,2.412.741-1.113,2.875,1.113,3.524a13.831,13.831,0,0,0,3.285.225c2.273-.021,4.567-.041,5.987,2a13.808,13.808,0,0,0,3.806,4.455l.592.76A35.9,35.9,0,0,1,11.831,47.963Zm28.187-.05,42.652-.292a38.066,38.066,0,0,0-1.4-9.874,10.133,10.133,0,0,0-4.8-3.188c-2.691-3.433-7.416-2.318-9.553-6.865-2.783.373-4.729-1.3-6.675-2.875-1.338-.889-2.417-.051-3.495.781-1.17.91-2.34,1.819-3.836.516A24.067,24.067,0,0,0,45.122,31.5l-5.753-1.579-4.73,3.524c-3.984,1.3-7.693,4.546-11.963,3.8-2.968,2.508-6.565.051-9.164,3.391a25.707,25.707,0,0,0-.813,6.845l25.745-.031ZM152.3,66.422l-7.734-4.279a18.568,18.568,0,0,1-7.312,1.558c-12.655,0-18.424-9.6-18.424-18.518,0-7.12,5.039-18.419,18.564-18.419,11.072,0,18.512,7.1,18.512,17.674a19.366,19.366,0,0,1-8.051,15.63l9.247,4.781c6.943,3.58,13.7,5.479,19.521,5.479a26.328,26.328,0,0,0,9.1-1.805l.192-.062c.652-.223,1.023-.073,1.023.346a.718.718,0,0,1-.487.646A35.476,35.476,0,0,1,171.6,72.692C166.056,72.692,160.107,70.757,152.3,66.422ZM123.672,43.879c0,10.39,6.044,17.644,14.705,17.644,2.11,0,12.654-.761,12.654-15.781,0-11.673-7.238-16.987-13.958-16.987C128.8,28.755,123.672,34.55,123.672,43.879ZM54.953,63.957c.184-1.016,1.856-1.665,2.412-.46v.46Zm251.815-5.342c-3.787-3.395-5.707-8.087-5.707-13.944a18.86,18.86,0,0,1,5.277-12.863c3.395-3.394,8.092-5.045,14.358-5.045a40.367,40.367,0,0,1,6.79.559,41.528,41.528,0,0,0,4.728.7c.559.047.8.269.8.714a4.707,4.707,0,0,1-.059.6c-.05.4-.122,1-.176,2.023-.057.885-.077,2.1-.1,3.115-.015.75-.025,1.386-.047,1.687-.031.491-.072,1.169-.621,1.169-.578,0-.578-.657-.578-1.184a6.264,6.264,0,0,0-1.885-4.594c-1.463-1.257-4.967-2.608-9.184-2.608-4.8,0-8.262,1.092-10.574,3.343-3.643,3.492-4.135,8.03-4.135,12.014,0,8.284,6.219,16.852,16.619,16.852,2.984,0,6.017-.274,7.963-2.272a8.645,8.645,0,0,0,1.666-3.8c.088-.475.192-.868.666-.868.162,0,.533.087.533.9a46.9,46.9,0,0,1-1.035,6.023,1.761,1.761,0,0,1-1.324,1.48c-2.008.807-5.692,1.092-8.469,1.092C315.559,63.7,310.627,62.086,306.768,58.614ZM167.49,60.71c-1.7-1.583-3.658-4.212-3.658-10.539V44.344c0-6.152,0-7.259-.088-8.51-.094-1.278-.326-1.842-1.5-2a12.851,12.851,0,0,0-1.371-.088.6.6,0,0,1-.534-.533c0-.533.621-.533.859-.533,1.287,0,2.866.047,3.844.072.43.016.744.021.863.021s.539-.01,1.061-.025c.963-.026,2.3-.068,3.083-.068.223,0,.9,0,.9.533a.6.6,0,0,1-.574.533,4.688,4.688,0,0,0-.988.088c-.859.15-1.133.595-1.237,2-.088,1.252-.088,2.359-.088,8.51v5.547c0,6.053,1.422,8.165,2.959,9.541a7.828,7.828,0,0,0,5.971,2.091,8.176,8.176,0,0,0,6.178-2.722c2.008-2.4,2.282-5.971,2.282-9.469V44.344c0-6.012-.041-7.191-.088-8.438-.05-1.325-.273-1.909-1.459-2.075a12.653,12.653,0,0,0-1.371-.088.556.556,0,0,1-.527-.533c0-.533.621-.533.853-.533,1.346,0,2.986.051,3.856.077.305.011.512.015.574.015.088,0,.352-.01.709-.021.756-.025,1.92-.072,2.736-.072.232,0,.86,0,.86.533a.557.557,0,0,1-.533.533,4.705,4.705,0,0,0-.988.088c-.989.207-1.19.76-1.278,2-.062.864-.062,1.676-.052,4.1l.005,8.655c0,4.052-.439,9.081-3.891,12.035a12.6,12.6,0,0,1-8.7,2.939C172.479,63.561,169.476,62.573,167.49,60.71Zm106.484.139c-.408-.367-6.343-6.208-10.674-10.725-4.3-4.517-8.609-9.039-10.259-10.829l.454,18.139c.094,3.42.518,4.1,1.428,4.325a9.753,9.753,0,0,0,2,.228.524.524,0,0,1,.533.527c0,.352-.322.533-.953.533-1.666,0-2.974-.072-3.724-.113a8.176,8.176,0,0,0-1.293.005c-.756.041-1.983.108-3.275.108-.3,0-.854,0-.854-.533a.524.524,0,0,1,.527-.527,6.3,6.3,0,0,0,1.619-.228c.838-.228,1.02-1.071,1.02-4.745V34.328c0-1.568.223-2.209.766-2.209.486,0,1.076.6,1.547,1.086l.181.186c.211.212,1,1.04,2.178,2.277,2.422,2.545,6.514,6.85,10.777,11.237,2.67,2.758,5.475,5.743,7.446,7.834.781.828,1.427,1.516,1.883,1.992l-.409-19.325c-.047-2.633-.305-3.285-1.371-3.482a12.764,12.764,0,0,0-1.967-.186.516.516,0,0,1-.527-.574c0-.486.647-.486.994-.486,1.246,0,2.529.041,3.389.072a16.089,16.089,0,0,0,1.666,0c.662-.026,1.625-.068,2.727-.068.285,0,.951,0,.951.486a.664.664,0,0,1-.672.574,4.2,4.2,0,0,0-.935.094c-1.165.238-1.283.828-1.283,3.244l-.094,23.206c0,2.7-.016,3.047-.527,3.047S276.35,63.023,273.974,60.849Zm132.211,2.178L405.279,63c-1.723-.094-2.789-.094-3.394-.094-.1,0-.885,0-1.764.047-.791.047-1.729.093-2.385.093-.57,0-.859-.181-.859-.533a.521.521,0,0,1,.534-.527,4.292,4.292,0,0,0,.766-.109c.166-.031.326-.062.464-.077.581-.1.693-.652.875-1.78a77.269,77.269,0,0,0,.254-8.687v-6.99c0-6.152,0-7.259-.094-8.51-.094-1.361-.326-1.842-1.5-2a12.729,12.729,0,0,0-1.372-.094.589.589,0,0,1-.533-.527c0-.533.626-.533.859-.533,1.382,0,3.192.051,4.139.077.332.011.553.015.616.015l.533.005c1.936.011,8.439.041,9.24-.005a15.347,15.347,0,0,0,1.584-.191l.257-.037c.043-.015.1-.041.172-.072a1.065,1.065,0,0,1,.418-.119c.094,0,.389.041.389.58a2.372,2.372,0,0,1-.082.471,7.8,7.8,0,0,0-.245,1.407c-.015.145-.04.461-.067.833-.047.662-.109,1.49-.166,1.8-.072.284-.279.584-.574.584-.2,0-.533-.093-.533-.719a4.033,4.033,0,0,0-.217-1.319c-.233-.544-.565-.812-2.774-1.086-.678-.088-5.371-.139-5.889-.139-.01,0-.031.046-.031.217V45.742a.9.9,0,0,0,.016.238c1-.021,5.967-.026,6.84-.113.978-.094,1.527-.145,1.885-.5l.164-.171c.234-.243.389-.4.586-.4s.434.134.434.527a2.132,2.132,0,0,1-.072.44,13.09,13.09,0,0,0-.255,1.764c-.092.807-.185,2.3-.185,2.545,0,.58-.229.952-.574.952-.239,0-.486-.15-.486-.574a3.388,3.388,0,0,0-.17-1.237c-.115-.435-.357-.89-1.931-1.076-1.076-.134-5.375-.186-6.172-.186l-.087,5.138c-.01,1.868-.022,4.429.009,4.993.085,2.411.529,2.974,4.694,2.974a13.422,13.422,0,0,0,4.019-.409,2.8,2.8,0,0,0,1.739-2.587c.084-.419.191-.782.621-.782.222,0,.482.14.482.813a32.531,32.531,0,0,1-.564,3.875c-.32,1.174-.911,1.174-2.479,1.174C409.854,63.141,407.774,63.074,406.185,63.027Zm-25.663,0L379.611,63c-1.723-.094-2.789-.094-3.394-.094-.092,0-.879,0-1.758.047-.8.047-1.735.093-2.391.093-.564,0-.853-.181-.853-.533a.518.518,0,0,1,.527-.527,4.371,4.371,0,0,0,.771-.109c.164-.031.324-.062.465-.077.574-.1.687-.652.868-1.78a77.269,77.269,0,0,0,.254-8.687v-6.99c0-6.152,0-7.259-.094-8.51-.094-1.361-.32-1.842-1.5-2a12.634,12.634,0,0,0-1.372-.094.59.59,0,0,1-.527-.527c0-.533.621-.533.854-.533,1.381,0,3.2.051,4.138.077.332.011.553.015.616.015l.533.005c1.93.005,8.439.036,9.24-.005a15.347,15.347,0,0,0,1.584-.191l.264-.037c.041-.015.1-.041.166-.072a1.039,1.039,0,0,1,.424-.119c.088,0,.389.041.389.58a2.21,2.21,0,0,1-.084.471,7.039,7.039,0,0,0-.242,1.407c-.022.14-.041.446-.063.807-.05.673-.113,1.511-.175,1.827-.072.284-.279.584-.574.584-.2,0-.527-.093-.527-.719a4.186,4.186,0,0,0-.219-1.319c-.232-.544-.568-.812-2.771-1.086-.684-.088-5.378-.139-5.9-.139-.01,0-.025.046-.025.217V45.742a1.454,1.454,0,0,0,.01.238c1-.021,5.967-.026,6.845-.113.978-.094,1.522-.145,1.883-.5l.157-.166c.238-.243.392-.4.59-.4s.439.134.439.527a2.586,2.586,0,0,1-.072.44,11.428,11.428,0,0,0-.254,1.764c-.1.8-.185,2.292-.185,2.545,0,.59-.223.952-.58.952-.232,0-.486-.15-.486-.574a3.388,3.388,0,0,0-.17-1.237c-.109-.435-.354-.89-1.931-1.076-1.07-.134-5.375-.186-6.172-.186l-.082,5.138c-.012,1.868-.027,4.429.01,4.993.082,2.411.524,2.974,4.687,2.974a13.469,13.469,0,0,0,4.026-.409,2.794,2.794,0,0,0,1.732-2.587c.084-.419.191-.782.621-.782.222,0,.486.14.486.813a31.735,31.735,0,0,1-.568,3.875c-.32,1.174-.906,1.174-2.479,1.174C384.186,63.141,382.115,63.074,380.522,63.027Zm-148.408,0L231.2,63c-1.716-.094-2.787-.094-3.389-.094-.1,0-.885,0-1.764.047-.8.047-1.728.093-2.384.093-.571,0-.859-.181-.859-.533a.52.52,0,0,1,.533-.527,4.338,4.338,0,0,0,.766-.109c.166-.031.326-.062.464-.077.58-.1.694-.652.876-1.78a79.222,79.222,0,0,0,.247-8.687v-6.99c0-6.152,0-7.259-.087-8.51-.1-1.361-.327-1.842-1.507-2a12.61,12.61,0,0,0-1.365-.094.589.589,0,0,1-.533-.527c0-.533.621-.533.859-.533,1.381,0,3.191.051,4.138.077.327.011.554.015.616.015l.533.005c1.93.005,8.434.036,9.24-.005a15.538,15.538,0,0,0,1.584-.191l.258-.037a1.776,1.776,0,0,0,.172-.072,1.01,1.01,0,0,1,.418-.119c.088,0,.389.041.389.58a2.189,2.189,0,0,1-.082.471,7.355,7.355,0,0,0-.244,1.407c-.016.14-.041.446-.063.807-.05.673-.107,1.511-.17,1.827-.072.284-.279.584-.574.584-.2,0-.533-.093-.533-.719a4.229,4.229,0,0,0-.217-1.319c-.232-.544-.571-.812-2.774-1.086-.678-.088-5.37-.139-5.889-.139-.009,0-.031.046-.031.217V45.742a1.234,1.234,0,0,0,.012.238c1-.021,5.971-.026,6.844-.113.978-.094,1.527-.145,1.885-.5l.16-.166c.232-.243.392-.4.584-.4.212,0,.439.134.439.527a2.132,2.132,0,0,1-.072.44,12.155,12.155,0,0,0-.254,1.764c-.092.8-.185,2.292-.185,2.545,0,.59-.223.952-.574.952-.238,0-.487-.15-.487-.574a3.291,3.291,0,0,0-.176-1.237c-.11-.435-.352-.89-1.926-1.076-1.076-.134-5.375-.186-6.171-.186l-.088,5.138c-.01,1.868-.02,4.429.01,4.993.084,2.411.523,2.974,4.687,2.974a13.457,13.457,0,0,0,4.026-.409,2.8,2.8,0,0,0,1.734-2.587c.087-.419.2-.782.621-.782.227,0,.486.14.486.813a32.342,32.342,0,0,1-.564,3.875c-.32,1.174-.91,1.174-2.479,1.174C235.781,63.141,233.707,63.074,232.114,63.027Zm-25.668,0L205.539,63c-1.723-.094-2.789-.094-3.395-.094-.1,0-.885,0-1.764.047-.791.047-1.728.093-2.384.093-.571,0-.859-.181-.859-.533a.523.523,0,0,1,.533-.527,4.371,4.371,0,0,0,.771-.109c.16-.031.325-.062.459-.077.586-.1.694-.652.876-1.785a77.131,77.131,0,0,0,.254-8.682v-6.99c0-6.152,0-7.259-.094-8.51-.094-1.361-.327-1.842-1.5-2a12.761,12.761,0,0,0-1.372-.088.6.6,0,0,1-.533-.533c0-.533.627-.533.859-.533,1.381,0,3.191.051,4.138.077.332.011.555.015.616.015l.533.005c1.936.005,8.44.036,9.237-.005a15.276,15.276,0,0,0,1.588-.191l.258-.037a1.466,1.466,0,0,0,.172-.072c.274-.124.806-.316.806.461a1.985,1.985,0,0,1-.082.471,7.817,7.817,0,0,0-.244,1.407c-.016.145-.035.461-.067.833-.047.662-.11,1.49-.167,1.8-.072.284-.279.584-.574.584-.2,0-.533-.093-.533-.719a4.054,4.054,0,0,0-.217-1.319c-.232-.544-.564-.812-2.768-1.086-.684-.088-5.377-.139-5.894-.139-.01,0-.031.046-.031.217V45.742a.949.949,0,0,0,.015.238c1-.021,5.967-.026,6.845-.113.979-.094,1.522-.145,1.879-.5l.164-.171c.235-.238.389-.4.586-.4s.434.134.434.527a2.456,2.456,0,0,1-.067.44,12.092,12.092,0,0,0-.259,1.764c-.092.8-.18,2.292-.18,2.545,0,.58-.232.952-.58.952-.238,0-.487-.15-.487-.574a3.291,3.291,0,0,0-.176-1.237c-.11-.435-.352-.89-1.926-1.076-1.076-.134-5.375-.186-6.171-.186l-.083,5.138c-.012,1.868-.025,4.429,0,4.988.084,2.417.529,2.98,4.687,2.98a13.51,13.51,0,0,0,4.031-.409,2.8,2.8,0,0,0,1.734-2.587c.083-.419.192-.782.619-.782.223,0,.482.14.482.813a32.342,32.342,0,0,1-.564,3.875c-.32,1.174-.91,1.174-2.479,1.174C210.113,63.141,208.04,63.074,206.446,63.027Zm243.236.021a25.9,25.9,0,0,1-2.861-.1c-2.111-.181-3.207-1.019-4.873-2.292l-.217-.17c-1.854-1.438-10.128-10.162-12.3-12.682v3.529c0,3.87,0,6.928.185,8.547.141,1.185.327,1.76,1.408,1.92a11.5,11.5,0,0,0,1.557.186.521.521,0,0,1,.533.533c0,.156-.088.527-.859.527-1.434,0-3.1-.072-4.06-.113-.379-.015-.643-.026-.741-.026s-.455.015-.922.036c-.92.041-2.291.1-3.129.1-.57,0-.859-.181-.859-.527a.522.522,0,0,1,.534-.533,5.67,5.67,0,0,0,1.211-.181c.609-.145.713-.662.895-1.822a76.193,76.193,0,0,0,.254-8.651v-6.99c0-6.152,0-7.259-.094-8.51-.094-1.361-.32-1.842-1.5-2a12.729,12.729,0,0,0-1.371-.088.6.6,0,0,1-.533-.533c0-.533.621-.533.859-.533,1.382,0,3.119.051,4.026.077.315.011.527.015.584.015.135,0,.533-.01,1.045-.025.931-.026,2.23-.068,3.011-.068.233,0,.854,0,.854.533a.552.552,0,0,1-.527.533,4.675,4.675,0,0,0-.988.088c-.922.2-1.186.61-1.278,2-.094,1.252-.094,2.359-.094,8.51V46.4c.7-.744,2.981-3.011,5.189-5.215,1.789-1.786,3.5-3.487,4.149-4.16l.212-.212c1.014-1.009,1.971-1.961,1.971-2.488,0-.544-.227-.574-.336-.59a.642.642,0,0,1-.549-.574c0-.232.172-.486.668-.486.409,0,.91.021,1.434.047.559.021,1.133.046,1.644.046.072,0,.4-.01.85-.021.946-.025,2.41-.072,3.109-.072.537,0,.806.166.806.486,0,.16-.057.528-.621.528a6.592,6.592,0,0,0-2.209.548,11.545,11.545,0,0,0-3.57,2.69l-.652.621c-.988.9-7.481,7.13-8.76,8.47,1.543,1.63,9.578,9.654,11.135,11.083l.865.771c2.649,2.37,3.2,2.861,4.945,3.565a8.735,8.735,0,0,0,2.437.548c.409,0,.719.228.719.533,0,.527-.791.527-1.092.527Zm-82.679,0a8.588,8.588,0,0,1-4.48-.817c-1.805-.952-3.336-2.912-5.655-5.878-.941-1.174-1.914-2.472-2.748-3.585-.688-.916-1.278-1.708-1.676-2.189a.419.419,0,0,0-.4-.16l-5.226-.094-.067,1.056c0,3.844,0,6.881.182,8.506.144,1.2.386,1.759,1.462,1.914a15.082,15.082,0,0,0,1.786.186.49.49,0,0,1,.527.533c0,.156-.083.527-.854.527-1.741,0-3.7-.083-4.584-.124-.248-.01-.409-.015-.449-.015l-.207.011c-.678.031-2.789.129-3.85.129-.57,0-.853-.181-.853-.527a.52.52,0,0,1,.527-.533,5.678,5.678,0,0,0,1.211-.181c.609-.145.718-.662.9-1.816a78.015,78.015,0,0,0,.248-8.656v-6.99c0-6.152,0-7.259-.094-8.51-.092-1.361-.319-1.842-1.5-2a12.671,12.671,0,0,0-1.372-.088.6.6,0,0,1-.533-.533c0-.533.626-.533.859-.533,1.381,0,3.244.051,4.217.077.342.011.569.015.631.015.15,0,.709-.01,1.418-.025,1.226-.026,2.908-.068,3.7-.068,2.587,0,5.531.212,7.76,1.764a7.168,7.168,0,0,1,2.93,5.573c0,3.3-1.527,6.1-4.956,9.065l.527.646c3.053,3.829,5.7,7.13,7.91,9.432,2.07,2.111,3.363,2.546,4.451,2.691a7.34,7.34,0,0,0,1.417.139.564.564,0,0,1,.576.533c0,.527-.715.527-1.185.527Zm-20.09-28.332a.276.276,0,0,0-.16.264V47.7a.386.386,0,0,0,.2.352,14.079,14.079,0,0,0,4.4.563,5.117,5.117,0,0,0,2.959-.662c1.49-.993,2.38-3.2,2.38-5.888,0-4.744-2.572-7.58-6.88-7.58A17.406,17.406,0,0,0,346.912,34.716ZM39.742,61.735h-.649c-.558-.649.275-.746.649-1.3.556-.276.74.373,1.113.653.221.594-.328.653-.795.653C39.946,61.738,39.834,61.735,39.742,61.735Zm8.718-.93.465-.833a4.739,4.739,0,0,0,2.407.649,5.64,5.64,0,0,1-1.61.2C49.353,60.821,48.953,60.8,48.461,60.8ZM85.785,49.311l3.338-2.357-.986-.925-2.434.057-.035-1.662,7.545-.179.04,1.662-3.128.071,3.2,2.874.05,2.075L90.32,48.048l-4.485,3.343Zm-83.2,1.815.051-6.187,1.4.01-.022,2.265,6.156.057-.015,1.656L4,48.876l-.013,2.265ZM69.144,40.4l6.211,5.936-.648.741ZM52.727,45.225l5.1-6.676c-.838,2.038-1.113,6.4-4.266,6.676ZM6.478,44.055A3.722,3.722,0,1,1,7.91,36.77a3.641,3.641,0,0,1,3.135,4.4,3.533,3.533,0,0,1-3.632,2.982A4.855,4.855,0,0,1,6.478,44.055ZM4.652,39.914c-.285,1.467.85,2.26,2.148,2.515,1.233.24,2.588-.067,2.874-1.529s-.854-2.26-2.086-2.5a4.156,4.156,0,0,0-.795-.081A1.959,1.959,0,0,0,4.652,39.914Zm79.743-1.9,7.393-1.549,1.156,5.532-1.365.281-.818-3.9-1.586.328.752,3.584-1.262.261-.752-3.579-1.811.379.834,3.983-1.365.292ZM26.2,40.4a14.079,14.079,0,0,1,3.158-2.043c-.556,1.487-1.947,2.6-2.045,4.265C26.3,42.258,26.481,41.144,26.2,40.4Zm46.934-4.081c2.412-1.487,2.5,1.113,2.038,2.687A8.6,8.6,0,0,1,73.133,36.322ZM82.057,31.9l7.01-2.812,2.1,5.251-1.294.517-1.483-3.7-1.5.6,1.359,3.4-1.2.481-1.36-3.4-1.718.685L85.482,36.7l-1.292.517ZM4.576,34.295l.68-1.513,5.18,1.028.01-.021L6.3,30.475l.644-1.416,5.271.971.006-.02L7.992,26.738l.671-1.483,6.043,4.96-.679,1.5-5.211-.951-.01.021,4.168,3.263-.691,1.534ZM45.77,32.608a15.1,15.1,0,0,1,3.34-2.222c-.741,1.573-1.487,3.244-2.41,4.822C46.418,34.559,45.4,33.722,45.77,32.608Zm20.682-1.854c.838,1.119,2.137,2.319,1.855,3.616Zm14.41-1.01a8.167,8.167,0,0,1,1.385-1.192,1.093,1.093,0,0,0,.291-1.671l-.883-1.407-2.5,1.58-.886-1.406,6.381-4.035,2.174,3.442a2.074,2.074,0,0,1-.579,2.981,1.864,1.864,0,0,1-2.24,0l-.02.011c.26.8-.291,1.421-.9,1.871-.389.281-1.145.746-1.344,1.222Zm1.789-4.9.977,1.539a1.065,1.065,0,1,0,1.795-1.135l-.97-1.539ZM59.408,27.883a1.8,1.8,0,0,1,1.108,1.758l-.275.281ZM9.885,23.594l1-1.314,5.941.552.01-.015L12.8,19.753l.935-1.242,6.018,4.566-1,1.324-5.926-.552-.015.015,4.029,3.057L15.9,28.159Zm65.522-.879A3.641,3.641,0,0,1,75.7,17.32a3.661,3.661,0,0,1,5.445-.046,3.061,3.061,0,0,1,.272,4.234l-1.105-1.166a1.639,1.639,0,0,0-.174-2.107c-1.028-1.084-2.336-.618-3.293.292-.914.864-1.452,2.142-.424,3.226a1.7,1.7,0,0,0,2.4.082L79.93,23a3.489,3.489,0,0,1-2.156.806A3.239,3.239,0,0,1,75.407,22.714ZM184.689,10.193v11.64h-1.945V5.468l11.721,12.284V6.215h1.946V22.478ZM166.66,11l-4.408,11.455L155.764,6.215h2.115L162.252,17.4,166.66,5.888,171.074,17.4l4.369-11.183h2.113l-6.483,16.242Zm45.711,3.021a8.181,8.181,0,0,1,16.361,0,8.181,8.181,0,0,1-16.361,0Zm1.945,0a6.235,6.235,0,1,0,12.469,0,6.235,6.235,0,1,0-12.469,0Zm-79.209,0a8.181,8.181,0,0,1,16.362,0,8.181,8.181,0,0,1-16.362,0Zm1.948,0a6.234,6.234,0,1,0,12.467,0,6.234,6.234,0,1,0-12.467,0Zm97.688,7.809V6.215h7.564V8h-5.613V12.39h5.423v1.782h-5.423v7.661Zm-109.869,0V8h-3.709V6.215h9.361V8h-3.707V21.833ZM20.008,17.483a3.72,3.72,0,1,1,5.926-4.469,3.638,3.638,0,0,1-.6,5.368,3.678,3.678,0,0,1-2.227.792A3.925,3.925,0,0,1,20.008,17.483Zm1.4-4.3c-1.192.9-.869,2.245-.076,3.3.756,1,1.969,1.678,3.161.782s.873-2.249.117-3.256a2.741,2.741,0,0,0-2.045-1.248A1.9,1.9,0,0,0,21.408,13.183Zm47.3,3.62-.086-5.946-.016-.015L66,15.178l-1.33-.8,3.887-6.467,1.416.849.092,5.966.016.011,2.607-4.346,1.334.8-3.891,6.473ZM25.561,8.924,30.31,6.552,30.934,7.8,27.672,9.431,28.449,11l2.832-1.417.572,1.156-2.826,1.411,1.394,2.792-1.489.742Zm33,3.124,2.626-7.081,5.294,1.964L66,8.24,62.26,6.854,61.7,8.373l3.431,1.273-.445,1.211L61.248,9.584,60.6,11.318l3.821,1.416-.486,1.31Zm-6.418-1.273,1.361-7.43,5.553,1.018-.252,1.37-3.922-.715L54.6,6.609l3.6.659-.234,1.268-3.6-.66L54.033,9.7l4,.736-.25,1.37ZM35.867,8.51a3.722,3.722,0,1,1,7.272-1.5,4.175,4.175,0,0,1-.4,2.924l1.094.644-.593.956L42,10.8a3.564,3.564,0,0,1-1.7.8,4.253,4.253,0,0,1-.864.092A3.669,3.669,0,0,1,35.867,8.51Zm3.114-3.288c-1.462.3-1.752,1.657-1.483,2.95.252,1.232,1.059,2.363,2.516,2.06.24-.05.543-.112.635-.235l-.828-.491.591-.967,1,.593a2.952,2.952,0,0,0,.1-1.795c-.236-1.148-.9-2.168-2.065-2.167A2.289,2.289,0,0,0,38.981,5.223Zm5.64,2.572L44.606,3.1l1.661,0,.016,4.694c0,.823.214,1.636,1.559,1.636C49.023,9.42,49.406,8.9,49.4,7.78l-.015-4.694,1.66,0,.015,4.693c.006,2.045-1.2,3.042-3.22,3.047h-.014C45.807,10.822,44.625,9.84,44.621,7.795Z"/>
</svg>
